<svg xmlns="http://www.w3.org/2000/svg" xmlns:xlink="http://www.w3.org/1999/xlink" width="333px" height="251px" viewBox="0 0 333 251"><title>authentication_isometric</title><desc>Created with Sketch.</desc><defs><linearGradient x1="35.7660706%" y1="81.9117647%" x2="51.2647011%" y2="33.6213235%" id="linearGradient-1"><stop stop-color="#FFFFFF" stop-opacity="0" offset="1%"></stop><stop stop-color="#B3B3B3" stop-opacity="0.97" offset="100%"></stop></linearGradient></defs><g id="Page-1" stroke="none" stroke-width="1" fill="none" fill-rule="evenodd"><g id="authentication_isometric" transform="translate(0.000000, 2.000000)"><path d="M0.8,154.9 L5.08,157.45 L187.72,52.83 L326.39,136.16 L332.72,134.27 L332.72,141.76 C332.888264,143.342061 332.102946,144.873431 330.72,145.66 L155.84,246.07 C150.801383,248.96103 144.613277,248.987621 139.55,246.14 L4.41,170.14 C1.76263723,168.662725 0.353953153,165.660215 0.91,162.68 L0.8,154.9 Z" id="Shape" fill="#68E1FD" fill-rule="nonzero"></path><path d="M0.8,154.9 L5.08,157.45 L187.72,52.83 L326.39,136.16 L332.72,134.27 L332.72,141.76 C332.888264,143.342061 332.102946,144.873431 330.72,145.66 L155.84,246.07 C150.801383,248.96103 144.613277,248.987621 139.55,246.14 L4.41,170.14 C1.76263723,168.662725 0.353953153,165.660215 0.91,162.68 L0.8,154.9 Z" id="Shape" fill="#68E1FD" fill-rule="nonzero"></path><path d="M0.8,154.9 L5.08,157.45 L187.72,52.83 L326.39,136.16 L332.72,134.27 L332.72,141.76 C332.888264,143.342061 332.102946,144.873431 330.72,145.66 L155.84,246.07 C150.801383,248.96103 144.613277,248.987621 139.55,246.14 L4.41,170.14 C1.76263723,168.662725 0.353953153,165.660215 0.91,162.68 L0.8,154.9 Z" id="Shape" fill="#124577" fill-rule="nonzero" opacity="0.39"></path><path d="M330.73,136.41 L155.84,236.82 C150.801383,239.71103 144.613277,239.737621 139.55,236.89 L4.41,160.89 C2.18694305,159.631564 0.812735318,157.274534 0.812735318,154.72 C0.812735318,152.165466 2.18694305,149.808436 4.41,148.55 L187.76,43.55 L330.84,129.55 C332.033522,130.292016 332.750082,131.605953 332.72755,133.011149 C332.705017,134.416345 331.946699,135.706631 330.73,136.41 Z" id="Shape" fill="#68E1FD" fill-rule="nonzero"></path><polygon id="Shape" fill="#FFFFFF" fill-rule="nonzero" points="309.99 132.23 159.6 218.51 26.29 143.57 178.76 54.03"></polygon><ellipse id="Oval" fill="#124577" fill-rule="nonzero" opacity="0.39" cx="76.57" cy="185.25" rx="6.65" ry="3.63"></ellipse><path d="M165.45,188 C167.895616,186.461042 169.353584,183.751005 169.29007,180.862165 C169.226557,177.973325 167.650891,175.329985 165.14,173.9 L98.14,135.72 C93.1276511,132.860807 86.9701714,132.895121 81.99,135.81 C79.481056,137.303872 77.952951,140.016624 77.9755861,142.936546 C77.9982211,145.856467 79.5681981,148.545203 82.1,150 L148.84,188.3 C154.006448,191.278074 160.394463,191.162697 165.45,188 Z" id="Shape" fill="#26C485" fill-rule="nonzero" opacity="0.295815"></path><ellipse id="Oval" stroke="#29ABE2" cx="198.41" cy="121.86" rx="62.7" ry="28.69"></ellipse><path d="M57.59,31.87 L59.18,88.19 C59.292188,89.4110181 59.9896641,90.5017623 61.0509523,91.1158785 C62.1122405,91.7299947 63.4054739,91.7911779 64.52,91.28 L109.72,66.22 C111.282483,65.4418875 112.2589,63.8352724 112.23,62.09 L111.23,7.7 C111.20714,6.42449982 110.528824,5.2507418 109.435095,4.59409804 C108.341367,3.93745429 106.986516,3.89055614 105.85,4.47 L60.07,27.75 C58.5224685,28.5349937 57.5593412,30.1350277 57.59,31.87 Z" id="Shape" fill="#26C485" fill-rule="nonzero"></path><path d="M81.37,62.79 C79.1233333,58.89 77,54.96 75,51 C74.3642073,49.7660636 73.1246318,48.9590531 71.7389592,48.8769392 C70.3532865,48.7948252 69.0270755,49.4497891 68.25,50.6 L68.2,50.68 C67.409752,51.8742452 67.3182167,53.3998329 67.96,54.68 C70.07,58.76 72.24,62.82 74.51,66.82 C77,71.27 83.91,67.26 81.37,62.79 Z" id="Shape" fill="#FFFFFF" fill-rule="nonzero"></path><path d="M74.78,62.89 C82.9571627,50.1631958 90.4349097,37.0003579 97.18,23.46 C99.47,18.87 106.34,22.9 104.06,27.46 C97.3148573,41.00033 89.8371118,54.163165 81.66,66.89 C78.89,71.21 72,67.22 74.78,62.89 Z" id="Shape" fill="#FFFFFF" fill-rule="nonzero"></path><polyline id="Shape" fill="url(#linearGradient-1)" fill-rule="nonzero" opacity="0.46" style="mix-blend-mode: multiply;" points="164.73 120.54 114.64 147.96 164.73 174.94 238.78 133.99"></polyline><path d="M238.78,134 C238.78,134 237.67,116.32 237.26,111.94 C236.89,107.94 235.57,90.61 224.7,85.12 C210.96,78.18 195.13,69.18 180.5,73.37 C168.64,76.77 164.6,117.81 164.73,120.55 C165,125.46 201.75,151.45 238.78,134 Z" id="Shape" fill="#FF8386" fill-rule="nonzero"></path><path d="M210.69,87.22 C210.69,88.02 200.99,99.07 198.69,97.64 C196.39,96.21 195.28,86.33 193.84,87.22 C192.4,88.11 187.11,94.5 186.35,94 C185.59,93.5 187.49,76.56 189.05,73.72 C190.61,70.88 210.69,80.94 210.69,87.22 Z" id="Shape" fill="#2B415D" fill-rule="nonzero"></path><path d="M186.31,46.1 C186.31,46.1 186.37,57.59 186.31,61.86 C186.25,66.36 188.15,78.52 195.55,78.13 C202.95,77.74 210.55,69.13 210.55,67.13 C210.55,67.13 218.03,62.48 213.8,58.9 C209.57,55.32 209.25,61.38 209.25,61.38 C209.25,61.38 206.96,58.05 206.8,49.11 C206.79,49.13 196.23,50.8 186.31,46.1 Z" id="Shape" fill="#FFAC73" fill-rule="nonzero"></path><path d="M210.19,79.08 C206.42,82.56 200.28,83.21 194.6,82.39 C193.722608,82.3258006 193.011782,81.6526066 192.9,80.78 C192.81,79.04 192.7,77.3 192.55,75.57 L212.06,66 L210.55,78.43 C210.55,78.43 210.43,78.71 210.19,79.08 Z" id="Shape" fill="#FFAC73" fill-rule="nonzero"></path><path d="M196.81,82.62 C196.05,82.56 195.29,82.48 194.54,82.38 C193.693834,82.3201195 193.007493,81.6714438 192.9,80.83 C192.9,79.92 192.81,79.02 192.75,78.12 C196.88,78.12 204.23,77.12 208.11,69.5 C207.086064,75.6390277 202.729422,80.6973585 196.81,82.62 Z" id="Shape" fill="#E5894A" fill-rule="nonzero"></path><path d="M186.34,52.64 C186.34,52.64 181.65,49.64 182.21,42.69 C182.77,35.74 190.49,31.75 201,32.34 C211.51,32.93 223.63,38.11 225.33,55.34 C227.03,72.57 230.77,82.58 224.66,85.1 C218.55,87.62 208.79,90.47 198.66,89.26 C198.66,89.26 208.57,69.68 207.54,56.5 C206.51,43.32 206.27,53.38 205.12,55.56 C203.97,57.74 186.34,52.64 186.34,52.64 Z" id="Shape" fill="#4B1B13" fill-rule="nonzero"></path><path d="M216.74,139.85 C216.37,139.85 216.01,139.85 215.64,139.91 C215.746667,132.516667 215.766667,125.126667 215.7,117.74 C215.757072,117.111555 216.283968,116.63034 216.915,116.63034 C217.546032,116.63034 218.072928,117.111555 218.13,117.74 C218.196667,125.073333 218.176667,132.406667 218.07,139.74 L216.74,139.85 Z" id="Shape" fill="#BC424B" fill-rule="nonzero"></path><path d="M176.66,130.58 C176.580394,130.532658 176.49673,130.492499 176.41,130.46 L175.75,130.1 L174.98,129.68 L174.34,129.33 C174.34,120.543333 174.6,111.766667 175.12,103 C175.21,101.44 177.64,101.43 177.55,103 C177.043333,112.04 176.78,121.083333 176.76,130.13 C176.755566,130.284992 176.721627,130.437718 176.66,130.58 Z" id="Shape" fill="#BC424B" fill-rule="nonzero"></path><path d="M216.14,27.86 L233.54,37.51 C234.854832,38.2401953 235.670246,39.6260157 235.67,41.13 L235.67,67.82" id="Shape" stroke="#29ABE2" stroke-width="4"></path><path d="M235.670002,111.15 L235.67,134.77 C235.67138,135.874099 235.085416,136.895603 234.131643,137.451799 C233.17787,138.007995 232.000256,138.014928 231.04,137.47 L216.26,129.09" id="Shape" stroke="#29ABE2" stroke-width="4"></path><path d="M186.59,11.09 L168.31,0.54 C167.688415,0.181089158 166.922166,0.182785992 166.302177,0.544446258 C165.682188,0.906106524 165.303542,1.57226549 165.31,2.29 L165.309919,26.62" id="Shape" stroke="#29ABE2" stroke-width="4"></path><path d="M179.65,113 L166.9,106.25 C164.918192,105.20115 163.678999,103.142242 163.68,100.9 L163.679999,78.79" id="Shape" stroke="#29ABE2" stroke-width="4"></path><polygon id="Shape" fill="#26C485" fill-rule="nonzero" points="92.19 148.92 91.82 147.03 96.15 146.8 94.15 144.92 97.54 144.08 99.25 146.08 102.25 144.31 104.93 145.67 101.45 147.18 105.45 148.05 103.78 149.76 100.07 148.76 99.63 150.95 95.89 150.77 96.76 148.5"></polygon><polygon id="Shape" fill="#26C485" fill-rule="nonzero" points="107 157.84 106.63 155.95 110.96 155.72 108.96 153.84 112.35 153 114.06 155 117.06 153.23 119.74 154.59 116.26 156.1 120.26 156.97 118.59 158.68 114.88 157.68 114.44 159.87 110.7 159.69 111.57 157.42"></polygon><polygon id="Shape" fill="#26C485" fill-rule="nonzero" points="125.34 168 124.97 166.11 129.3 165.88 127.3 164 130.69 163.16 132.4 165.16 135.4 163.39 138.08 164.75 134.6 166.26 138.6 167.13 136.93 168.84 133.22 167.84 132.7 170 128.96 169.82 129.83 167.55"></polygon><polygon id="Shape" fill="#26C485" fill-rule="nonzero" points="142.43 177.92 142.06 176.03 146.39 175.8 144.39 173.92 147.78 173.08 149.49 175.08 152.49 173.31 155.17 174.67 151.69 176.18 155.69 177.05 154.02 178.76 150.31 177.76 149.87 179.95 146.13 179.77 147 177.5"></polygon></g></g></svg>